<?xml version="1.0" encoding="UTF-8"?>
<!DOCTYPE svg PUBLIC "-//W3C//DTD SVG 1.1//EN" "http://www.w3.org/Graphics/SVG/1.1/DTD/svg11.dtd">
<!-- Creator: CorelDRAW 2019 (64-Bit) -->
<svg xmlns="http://www.w3.org/2000/svg" xml:space="preserve" width="188.891mm" height="24.248mm" version="1.1" style="shape-rendering:geometricPrecision; text-rendering:geometricPrecision; image-rendering:optimizeQuality; fill-rule:evenodd; clip-rule:evenodd"
viewBox="0 0 188.5397 24.2029"
 xmlns:xlink="http://www.w3.org/1999/xlink"
 xmlns:xodm="http://www.corel.com/coreldraw/odm/2003">
 <defs>
  <style type="text/css">
   <![CDATA[
    .fil0 {fill:#CC9933}
   ]]>
  </style>
 </defs>
 <g id="Layer_x0020_1">
  <metadata id="CorelCorpID_0Corel-Layer"/>
  <g id="_733465040">
   <path class="fil0" d="M20.6048 13.6832c-0.4102,0.2306 -0.6151,0.6352 -0.6151,1.2157l0 7.5934c0,0.0204 -0.0201,0.0502 -0.0603,0.0902 -0.4825,0.3614 -1.0129,0.6541 -1.5759,0.8701 -0.5731,0.2212 -1.1658,0.3873 -1.7707,0.4957 -0.6053,0.1092 -1.2169,0.1791 -1.8309,0.2102 -0.6103,0.0298 -1.2057,0.0443 -1.7859,0.0443 -0.8805,0 -1.7707,-0.0298 -2.6713,-0.0898 -1.581,-0.1204 -3.0066,-0.5201 -4.2768,-1.2005 -1.271,-0.6802 -2.3516,-1.5653 -3.2417,-2.6564 -0.8903,-1.0904 -1.5755,-2.3308 -2.0558,-3.7217 -0.4805,-1.3906 -0.7206,-2.8564 -0.7206,-4.3968 0,-1.781 0.3198,-3.3568 0.9605,-4.7273 0.6402,-1.3704 1.5158,-2.5213 2.6261,-3.4514 1.1108,-0.9306 2.406,-1.6306 3.8868,-2.1016 1.4803,-0.4697 3.0615,-0.705 4.7426,-0.705 0.9002,0 1.8052,0.0499 2.716,0.1496 0.8968,0.0991 1.792,0.209 2.6861,0.3304 0.4003,0.0605 0.7957,0.1203 1.1854,0.1803 0.3904,0.0602 0.7851,0.1101 1.1853,0.1501 0.0798,0 0.1202,0.0401 0.1202,0.1198 -0.0388,0.7082 -0.1091,1.414 -0.2101,2.116 -0.1009,0.6953 -0.2009,1.3908 -0.3001,2.0861 -0.02,0.1402 -0.0398,0.2753 -0.0599,0.4049 -0.0201,0.1304 -0.0402,0.2548 -0.0602,0.3756 0,0.06 -0.0352,0.095 -0.1052,0.1049 -0.0705,0.0106 -0.1152,-0.0151 -0.1351,-0.0751 -0.1599,-0.8603 -0.4497,-1.6007 -0.8702,-2.2209 -0.4202,-0.6202 -0.9355,-1.1356 -1.5455,-1.5456 -0.6108,-0.4102 -1.2962,-0.7103 -2.0562,-0.9006 -0.7606,-0.1901 -1.5507,-0.2857 -2.3709,-0.2857 -1.3807,0 -2.6667,0.2306 -3.8568,0.6909 -1.191,0.4603 -2.2265,1.1057 -3.1067,1.9362 -0.8807,0.8303 -1.5755,1.8307 -2.0857,3.0011 -0.5095,1.1707 -0.7648,2.4566 -0.7648,3.8569 0,1.5208 0.2797,2.956 0.8405,4.3069 0.5602,1.3504 1.3253,2.5316 2.296,3.5414 0.9701,1.011 2.1205,1.8115 3.4517,2.4014 1.3301,0.5905 2.7657,0.885 4.307,0.885 0.6601,0 1.3304,-0.0751 2.0108,-0.2251 0.6799,-0.1496 1.2604,-0.4749 1.7409,-0.9753l0 -6.7529c0,-0.4803 -0.1499,-0.8052 -0.4501,-0.9753 -0.3002,-0.17 -0.6408,-0.3153 -1.0205,-0.4352 -0.1625,-0.0408 -0.3234,-0.0911 -0.4804,-0.1504 -0.1602,-0.0598 -0.3201,-0.1395 -0.4805,-0.2401 -0.0599,-0.0396 -0.0802,-0.0847 -0.0599,-0.1347 0.02,-0.0499 0.0599,-0.075 0.1197,-0.075 1.2009,0 2.3863,0.0103 3.5572,0.0298 1.1704,0.02 2.356,0.0601 3.5566,0.1202l0.0299 0.24c-0.5203,0.1002 -0.986,0.2652 -1.3955,0.495zm15.8021 7.9689l0 0c0.25,0.02 0.5152,0.0103 0.7961,-0.031l0 -0.24c-0.4806,-0.0401 -0.906,-0.1599 -1.276,-0.3598 -0.3704,-0.2 -0.675,-0.5299 -0.9151,-0.9907 -1.1372,-2.1529 -2.1542,-4.3674 -3.0465,-6.6326 -0.8831,-2.2403 -1.7385,-4.4919 -2.5665,-6.7531 -0.0992,-0.2773 -0.2042,-0.5528 -0.3151,-0.8254 -0.1111,-0.273 -0.2163,-0.5479 -0.3148,-0.8252 -0.0203,-0.0602 -0.0603,-0.0903 -0.1202,-0.0903 -0.0598,0 -0.1002,0.0301 -0.12,0.0903 -0.3762,0.9894 -0.7364,1.9852 -1.0805,2.9859 -0.3401,0.9908 -0.6905,1.9864 -1.0503,2.9868 -0.518,1.4748 -1.0486,2.9458 -1.5906,4.4121 -0.5408,1.4605 -1.1011,2.9217 -1.6813,4.382l0 -0.0298c-0.44,1.02 -1.2106,1.6009 -2.3109,1.7408 -0.06,0.0201 -0.0855,0.0704 -0.075,0.1501 0.0098,0.0802 0.0451,0.11 0.1049,0.0899 0.4003,-0.0401 0.8,-0.075 1.2007,-0.1052 0.7991,-0.0598 1.6019,-0.0598 2.4007,0 0.4006,0.0302 0.7905,0.0651 1.1705,0.1052l0 -0.2401c-0.2399,-0.0399 -0.4902,-0.1052 -0.7501,-0.1955 -0.2604,-0.0895 -0.3901,-0.2852 -0.3901,-0.5849 0,-0.2203 0.0694,-0.575 0.2098,-1.0656 0.1503,-0.5231 0.3105,-1.0436 0.4804,-1.561 0.1744,-0.5337 0.3592,-1.064 0.5549,-1.5903 0.1435,-0.3862 0.2885,-0.7711 0.4352,-1.1555l4.6527 0c0.3332,0.9433 0.6884,1.879 1.0651,2.8065 0.3729,0.9183 0.7278,1.8441 1.0653,2.7765l-1.1705 0.5699c-0.06,0.0401 -0.0803,0.0896 -0.06,0.1501 0.0196,0.0597 0.0596,0.0899 0.1202,0.0899 0.4599,-0.0401 0.9202,-0.0798 1.3806,-0.1202 0.4599,-0.0401 0.92,-0.0601 1.3805,-0.0601 0.1753,-0.0004 0.3505,0.0047 0.5257,0.0149 0.1653,0.0095 0.3303,0.0244 0.4949,0.0448 0.2652,0.0193 0.5302,0.0392 0.7952,0.0605zm-7.9087 -13.566l0 0 1.8614 6.2429 -3.8723 0c0.3662,-1.0386 0.7115,-2.0842 1.036,-3.1364 0.3181,-1.0378 0.6433,-2.0732 0.9749,-3.1065zm30.3639 13.5958l0 0 -2.431 0c-0.8005,0 -1.5908,-0.0196 -2.3714,-0.0601 -0.1197,0 -0.1602,-0.0499 -0.1197,-0.1501 0.0197,-0.0399 0.0345,-0.0797 0.0447,-0.1197 0.0107,-0.0417 0.0257,-0.0817 0.0447,-0.1199l0.1799 -0.5405c0.0603,-0.1803 0.0904,-0.3499 0.0904,-0.5102 0,-1.1407 -0.0554,-2.266 -0.1654,-3.3764 -0.1111,-1.117 -0.236,-2.2326 -0.3754,-3.3466 -0.0707,-0.6057 -0.1456,-1.2109 -0.2251,-1.8158 -0.0703,-0.5294 -0.1253,-1.1449 -0.165,-1.8457 -0.7546,1.4486 -1.4852,2.9093 -2.191,4.3818 -0.7003,1.4608 -1.4011,2.9412 -2.1008,4.4421 -0.2377,0.4937 -0.4724,0.9891 -0.7056,1.4851 -0.2331,0.4965 -0.4678,0.9918 -0.7052,1.4859 -0.0205,0.0404 -0.0504,0.0601 -0.0898,0.0601 -0.0405,0 -0.0805,-0.0197 -0.1203,-0.0601 -0.9208,-1.2805 -1.716,-2.5862 -2.3863,-3.9165 -0.6657,-1.3209 -1.3013,-2.6569 -1.9058,-4.0068 -0.2902,-0.6332 -0.5755,-1.2684 -0.8554,-1.9061 -0.2797,-0.632 -0.5747,-1.2578 -0.885,-1.8756 -0.0581,0.4854 -0.1185,0.9706 -0.1804,1.4556 -0.0599,0.4703 -0.1201,0.9356 -0.1802,1.3952 -0.1587,1.2287 -0.2988,2.4592 -0.4202,3.6918 -0.1211,1.2369 -0.1811,2.479 -0.1802,3.7217 0,0.3602 0.09,0.6054 0.2703,0.7354 0.18,0.1304 0.4001,0.2453 0.66,0.3452 0.0799,0.0401 0.19,0.0852 0.3305,0.1347 0.1396,0.0506 0.2297,0.0852 0.2703,0.1052 0.06,0.0401 0.0796,0.09 0.06,0.1501 -0.0201,0.0597 -0.06,0.0899 -0.1202,0.0899 -0.2801,0 -0.5552,-0.0047 -0.8255,-0.015 -0.2753,-0.0102 -0.5502,-0.0252 -0.8252,-0.0447 -0.2802,-0.0201 -0.56,-0.035 -0.8405,-0.0451 -0.2805,-0.0099 -0.5606,-0.015 -0.8406,-0.015l-0.6001 0c-0.1802,0 -0.3803,0.0205 -0.6002,0.0605 -0.0604,0.02 -0.1006,-0.0103 -0.1201,-0.0903 -0.0206,-0.0798 0,-0.13 0.0598,-0.1497 0.16,-0.04 0.2802,-0.0604 0.3603,-0.0604 0.1927,-0.0329 0.3829,-0.0783 0.5703,-0.1347 0.1599,-0.0499 0.3098,-0.1851 0.4503,-0.4053 0.0395,-0.0606 0.0941,-0.3198 0.1649,-0.7804 0.0699,-0.46 0.1499,-1.045 0.2401,-1.7558 0.0902,-0.7098 0.1901,-1.5154 0.3001,-2.4156 0.1118,-0.92 0.2168,-1.8403 0.3152,-2.7614 0.0998,-0.9402 0.1996,-1.8653 0.3,-2.7762 0.0999,-0.9105 0.1896,-1.7459 0.2698,-2.5064 0.0799,-0.6603 0.1404,-1.2455 0.1805,-1.7557 0.0402,-0.5102 0.0797,-0.8752 0.1202,-1.0956 0,-0.0601 0.0248,-0.0945 0.075,-0.1052 0.0499,-0.0095 0.0951,0.0052 0.1351,0.0451 0.2401,0.2604 0.5802,0.7758 1.0206,1.5457 0.4399,0.7706 0.9156,1.6658 1.4257,2.6862 0.5373,1.0767 1.0675,2.1572 1.5903,3.2414 0.5106,1.0581 1.0159,2.1183 1.516,3.1815 0.34,0.7008 0.6196,1.301 0.8401,1.8009 0.2202,0.5001 0.4202,0.9204 0.6005,1.2605 0.3421,-0.6874 0.667,-1.383 0.9753,-2.0861 0.3301,-0.7506 0.6553,-1.4958 0.9759,-2.2357 0.7143,-1.6524 1.4548,-3.2936 2.2209,-4.9224 0.7799,-1.6607 1.6102,-3.1411 2.4909,-4.4421 0.0402,-0.0395 0.0798,-0.0545 0.1202,-0.0451 0.0397,0.0106 0.0602,0.0451 0.0602,0.1053 0.0398,0.24 0.0749,0.5754 0.105,1.0056 0.0301,0.4307 0.0754,0.9257 0.1348,1.4854 0.0601,0.7408 0.1353,1.5511 0.2253,2.4314 0.0899,0.8807 0.185,1.7809 0.2851,2.7011 0.1002,0.9204 0.1999,1.8159 0.3,2.6859 0.0905,0.7974 0.1952,1.5932 0.315,2.3867 0.11,0.7204 0.215,1.3256 0.3156,1.8154 0.0996,0.4906 0.1998,0.7953 0.2998,0.9152 0.2201,0.3205 0.4302,0.5255 0.6306,0.6155 0.1993,0.0903 0.4399,0.1556 0.7203,0.1956 0.1398,0.0401 0.2853,0.0653 0.4353,0.075 0.15,0.0103 0.3047,0.055 0.465,0.1347l-0.0294 0.2397zm9.6246 -1.5158l0 0c-0.0622,0.4451 -0.1221,0.89 -0.1803,1.3355 0,0.0605 -0.0404,0.0903 -0.1203,0.0903l-0.0293 0.0298c-0.1606,0.0601 -0.2904,0.0899 -0.3904,0.0899 -0.4604,0 -0.9255,-0.0043 -1.3957,-0.015 -0.4651,-0.0098 -0.9302,-0.0149 -1.3956,-0.0149 -0.4001,0 -0.7902,-0.0048 -1.1705,-0.0146 -0.3901,-0.0106 -0.7801,-0.0153 -1.1704,-0.0153 -0.5402,0 -1.0858,0.0047 -1.6358,0.0153 -0.5506,0.0098 -1.0955,0.0252 -1.6358,0.0444l0 -0.2401c0.3,0 0.5447,-0.0647 0.7352,-0.1951 0.1854,-0.1249 0.3356,-0.2954 0.4352,-0.4953 0.1002,-0.1995 0.165,-0.4251 0.1953,-0.6752 0.0298,-0.2498 0.0447,-0.5051 0.0447,-0.7652l0 -12.4854c0,-0.4005 -0.0951,-0.6605 -0.2853,-0.7801 -0.1936,-0.1218 -0.3999,-0.2228 -0.6151,-0.3l-0.4052 -0.1356c-0.1502,-0.0494 -0.3053,-0.1249 -0.4651,-0.2251 -0.0405,-0.0397 -0.0555,-0.0848 -0.0448,-0.1347 0.0098,-0.0498 0.0448,-0.0754 0.1049,-0.0754l8.5538 0c0.0825,-0.0408 0.1677,-0.0758 0.2554,-0.1049 0.0897,-0.0302 0.1743,-0.0648 0.2549,-0.1052 0.1002,-0.0397 0.1499,0 0.1499,0.1202 -0.0554,0.4878 -0.1304,0.9738 -0.2251,1.4557 -0.0904,0.4501 -0.1855,0.9054 -0.285,1.3654 -0.0206,0.0605 -0.0654,0.0852 -0.1352,0.0754 -0.0703,-0.0103 -0.1052,-0.0451 -0.1052,-0.1053 -0.0405,-0.7003 -0.2806,-1.1598 -0.72,-1.3805 -0.4409,-0.22 -0.9814,-0.3305 -1.6213,-0.3305l-2.3707 0 0 6.153 3.4813 0c0.1001,0 0.2298,-0.0298 0.3904,-0.0903 0.1595,-0.0601 0.3193,-0.1197 0.48,-0.1799 0.2089,-0.1154 0.4304,-0.2061 0.6608,-0.2702 0.0997,-0.0397 0.1495,0 0.1495,0.1198 -0.0201,0.2401 -0.0448,0.5008 -0.0751,0.7804 -0.0275,0.2612 -0.0623,0.5212 -0.1051,0.78 -0.0414,0.2486 -0.0712,0.4993 -0.09,0.7507 -0.0192,0.2513 -0.0492,0.5016 -0.0898,0.7502 0,0.0601 -0.0253,0.1005 -0.0753,0.1202 -0.0502,0.02 -0.0949,0.0102 -0.1349,-0.0302 -0.1006,-0.0998 -0.1652,-0.1995 -0.1953,-0.3 -0.0328,-0.1108 -0.0683,-0.2209 -0.105,-0.33 -0.0403,-0.1198 -0.0804,-0.24 -0.1201,-0.3602 -0.0405,-0.1202 -0.1105,-0.2298 -0.2102,-0.3299 -0.1006,-0.0998 -0.285,-0.1748 -0.5553,-0.2252 -0.288,-0.0526 -0.5785,-0.0926 -0.87,-0.1201 -0.3045,-0.0294 -0.6101,-0.0444 -0.9157,-0.0449l-1.5907 0 0 6.1831c0.2998,0.4407 0.7246,0.7757 1.2752,1.0055 0.5504,0.2306 1.0853,0.3452 1.6054,0.3452 0.7008,0 1.2956,-0.185 1.7861,-0.5554 0.4902,-0.37 0.8151,-0.8951 0.9752,-1.5759l0.2402 0.0602c-0.0959,0.4422 -0.1756,0.8876 -0.2389,1.3354zm18.3014 -9.0077l0 0c-0.0119,0.0344 -0.0369,0.0491 -0.0776,0.0432 -0.04,-0.0056 -0.06,-0.0261 -0.06,-0.0605 0,-0.3787 -0.1033,-0.6454 -0.3098,-0.8006 -0.2067,-0.1547 -0.494,-0.2326 -0.8611,-0.2326 -0.1612,0 -0.313,0.0091 -0.4569,0.0264 -0.1432,0.017 -0.2952,0.0368 -0.4559,0.0602 -0.1153,0.0232 -0.2413,0.0403 -0.3791,0.0518 -0.1375,0.0118 -0.264,0.0172 -0.3786,0.0172l0 3.3748 2.3241 0c0.0803,0 0.1726,-0.0345 0.2753,-0.1033 0.1033,-0.0687 0.1838,-0.1378 0.2413,-0.2066 0.0226,-0.0228 0.0485,-0.0285 0.0773,-0.0173 0.0286,0.0118 0.0431,0.0346 0.0431,0.0687 -0.0435,0.6187 -0.124,1.2338 -0.2409,1.8427 -0.0121,0.0342 -0.0371,0.0487 -0.0776,0.0428 -0.0402,-0.0055 -0.0602,-0.0259 -0.0602,-0.0601 0.0115,-0.3791 -0.0835,-0.6398 -0.2839,-0.7836 -0.2012,-0.1433 -0.4856,-0.2148 -0.8528,-0.2148l-1.4463 0 0 3.4436c0,0.1374 0.0283,0.2808 0.0859,0.4304 0.0576,0.1493 0.1379,0.2813 0.2413,0.3961 0.1032,0.1147 0.2235,0.2062 0.3614,0.2753 0.1377,0.0688 0.2871,0.1034 0.4479,0.1034l0 0.1377 -0.1208 0c-0.1265,0 -0.247,-0.0059 -0.3617,-0.0172 -0.1148,-0.0114 -0.2352,-0.0225 -0.361,-0.0346 -0.1205,-0.0106 -0.2412,-0.0193 -0.3617,-0.0256 -0.1147,-0.0058 -0.2298,-0.0086 -0.3446,-0.0086 -0.1142,0 -0.2296,0.0055 -0.3435,0.0173l-0.3447 0.0341c-0.2634,0.0225 -0.5273,0.0341 -0.7917,0.0345l-0.1032 0c-0.0347,0 -0.0548,-0.02 -0.0606,-0.0605 -0.0061,-0.04 0.0087,-0.066 0.0432,-0.0773 0.2061,-0.0346 0.3671,-0.0775 0.4818,-0.1294 0.1144,-0.0518 0.198,-0.1202 0.2494,-0.2065 0.0521,-0.0861 0.0806,-0.1949 0.0865,-0.3272 0.0055,-0.1321 0.0081,-0.3013 0.0081,-0.508l0 -7.1975c0,-0.2638 -0.0518,-0.4272 -0.1547,-0.4905 -0.1122,-0.0668 -0.2341,-0.1159 -0.3613,-0.1461 -0.0712,-0.0278 -0.1425,-0.0537 -0.2152,-0.0778 -0.094,-0.0317 -0.1834,-0.0754 -0.2666,-0.1293 -0.0343,-0.0228 -0.046,-0.0487 -0.0343,-0.0774 0.0114,-0.0282 0.0343,-0.0427 0.0687,-0.0427 0.7237,0.034 1.4518,0.0518 2.1868,0.0518l1.2223 0c0.0574,0 0.1175,0.0027 0.1808,0.0086 0.0628,0.0055 0.1292,0.0083 0.1983,0.0083 0.263,0.0118 0.5361,0.0118 0.8174,0 0.2813,-0.0115 0.5252,-0.0744 0.7313,-0.1893 0.0233,-0.0233 0.0487,-0.0233 0.0778,0 0.0283,0.0232 0.0368,0.0517 0.0256,0.0859l-0.3094 1.6699z"/>
   <path class="fil0" d="M180.7279 2.6851c-0.0206,0.7052 -0.1158,1.3407 -0.2828,1.9086 -0.022,0.0632 -0.0644,0.0946 -0.1274,0.0946 -0.0631,0 -0.1055,-0.0314 -0.1261,-0.0946 -0.1055,-0.5255 -0.2687,-0.9513 -0.49,-1.2776 -0.2133,-0.3198 -0.5001,-0.5846 -0.8344,-0.7728 -0.3369,-0.1893 -0.7163,-0.3205 -1.1367,-0.3944 -0.4373,-0.075 -0.881,-0.1119 -1.3258,-0.1105l-80.0383 0 0 18.4246c0,0.8413 0.2682,1.5566 0.8045,2.1455 0.5364,0.5891 1.2039,0.9461 2.0031,1.0727 0.0629,0.0208 0.0895,0.0683 0.0791,0.1417 -0.0112,0.0734 -0.0476,0.11 -0.1104,0.11 -0.7407,-0.0633 -1.4824,-0.1156 -2.2244,-0.1576 -0.7473,-0.0419 -1.4989,-0.0628 -2.2555,-0.0628 -0.5473,0 -1.0884,0.0158 -1.6248,0.0471 -0.5363,0.0318 -1.0779,0.0688 -1.6247,0.1104 -0.0632,0 -0.1002,-0.0365 -0.1107,-0.1104 -0.011,-0.0734 0.016,-0.121 0.079,-0.1417 0.5052,-0.1049 0.899,-0.2208 1.1834,-0.3469 0.2842,-0.1265 0.4937,-0.2942 0.6307,-0.5052 0.1369,-0.2101 0.2214,-0.478 0.2528,-0.8044 0.0316,-0.326 0.0475,-0.7416 0.0475,-1.2464l0 -18.6456 -5.2057 0c-0.6736,0 -1.2674,0.2365 -1.7825,0.7098 -0.5158,0.4734 -0.8997,1.0047 -1.1518,1.5935 -0.042,0.0629 -0.0899,0.0896 -0.1417,0.0788 -0.0526,-0.0108 -0.0791,-0.0472 -0.0791,-0.1105 -0.0419,-0.2101 -0.0628,-0.3992 -0.0628,-0.5681 0,-0.4202 0.0521,-0.8302 0.1575,-1.2301 0.1644,-0.6193 0.3434,-1.2349 0.5366,-1.8458 0.0628,-0.1995 0.1154,-0.3944 0.158,-0.5836 0.0414,-0.1261 0.1046,-0.147 0.1891,-0.0633 0.4415,0.2734 0.8723,0.4474 1.2936,0.5209 0.4207,0.0738 0.9036,0.1103 1.451,0.1103l89.9136 0c0.1685,0 0.3524,-0.0264 0.553,-0.079 0.1993,-0.0526 0.3832,-0.0997 0.5517,-0.1418 0.1208,-0.0232 0.2416,-0.0443 0.3627,-0.0629 0.1362,-0.0207 0.2789,-0.0424 0.4256,-0.0631 0.0629,0 0.0951,0.0424 0.0951,0.126l0 0.2521c-0.0014,0.6577 -0.0117,1.3151 -0.0322,1.9722z"/>
   <path class="fil0" d="M115.6988 21.772c-1.0494,-0.0598 -2.1006,-0.09 -3.1517,-0.0904 -0.3803,0 -0.7552,0.0051 -1.1253,0.0153 -0.3704,0.0107 -0.7557,0.0252 -1.1554,0.0448 -0.0602,0 -0.0951,-0.0345 -0.105,-0.1048 -0.0106,-0.0704 0.0149,-0.1152 0.0753,-0.1351 0.6195,-0.1803 1.0204,-0.4203 1.2006,-0.7204 0.1799,-0.3001 0.2702,-0.7703 0.2702,-1.4106l0 -6.2426 -9.214 0 0 6.3026c0,1.2604 0.6499,1.9511 1.951,2.0708 0.06,0 0.0899,0.0404 0.0899,0.1202 0,0.0805 -0.0299,0.1198 -0.0899,0.1198l-0.9306 0c-0.2804,0 -0.5801,0.0106 -0.9006,0.0299 -0.2204,0 -0.4753,0.005 -0.7654,0.0148 -0.29,0.0108 -0.5454,0.015 -0.7645,0.015l-0.7507 0c-0.2604,0 -0.5209,-0.0098 -0.78,-0.0297 -0.0803,0 -0.1757,-0.0044 -0.2853,-0.0146 -0.0949,-0.0095 -0.19,-0.0145 -0.2857,-0.0154 -0.0599,0 -0.0949,-0.0345 -0.1049,-0.1048 -0.0104,-0.0701 0.0151,-0.1148 0.0752,-0.1351 0.3196,-0.0602 0.5802,-0.1245 0.78,-0.1948 0.2,-0.07 0.3505,-0.1697 0.4503,-0.3005 0.1001,-0.1301 0.1653,-0.295 0.195,-0.4953 0.03,-0.1995 0.0449,-0.4599 0.0449,-0.78l0 -12.7857c0,-0.44 -0.1753,-0.7699 -0.5252,-0.9902 -0.3502,-0.22 -0.725,-0.3399 -1.1256,-0.3602l0 -0.24c0.8405,0.0602 1.6705,0.0902 2.4915,0.0902 0.3401,0 0.6798,-0.0048 1.0203,-0.0153 0.3402,-0.0094 0.6803,-0.0148 1.0206,-0.0148l0.6302 0c0.0603,0 0.09,0.0403 0.09,0.1201 0,0.0804 -0.0297,0.1201 -0.09,0.1201 -0.3599,0 -0.6851,0.1101 -0.9751,0.3304 -0.2908,0.2204 -0.4352,0.5299 -0.4352,0.9302l0 5.2226 9.1845 0 0 -5.1023c0,-0.481 -0.1256,-0.7857 -0.3757,-0.9161 -0.2502,-0.1297 -0.5552,-0.2447 -0.9153,-0.3448 -0.0755,-0.0185 -0.1505,-0.0385 -0.2252,-0.0606 -0.075,-0.0208 -0.1498,-0.0408 -0.2252,-0.0602 -0.0599,-0.0199 -0.085,-0.0643 -0.075,-0.1345 0.01,-0.07 0.0446,-0.1054 0.1054,-0.1054 1.3335,0.0847 2.6705,0.11 4.0067,0.0752 0.4097,-0.0099 0.8147,-0.0249 1.2157,-0.0449 0.0598,0 0.0946,0.035 0.1049,0.1048 0.0098,0.0705 -0.015,0.1156 -0.075,0.1352 -0.4406,0.0802 -0.7907,0.1952 -1.0503,0.345 -0.2605,0.1499 -0.3905,0.4755 -0.3905,0.9756l0 12.3053c0,0.6807 0.1501,1.191 0.4497,1.5307 0.3005,0.3409 0.7904,0.5703 1.4711,0.6905l-0.0306 0.2401zm16.0972 0.225l0 0c-0.3587,0.0888 -0.7264,0.134 -1.0956,0.1351 -0.6006,0 -1.1405,-0.11 -1.6203,-0.3304 -0.4808,-0.2195 -0.9109,-0.4996 -1.2907,-0.8401 -0.3803,-0.3402 -0.7353,-0.7302 -1.0658,-1.1705 -0.3297,-0.4396 -0.6448,-0.89 -0.9448,-1.3504 -0.2835,-0.4238 -0.5783,-0.839 -0.8854,-1.2456 -0.3108,-0.4096 -0.6506,-0.7801 -1.0208,-1.1104 -0.3701,-0.3307 -0.7704,-0.5951 -1.2005,-0.7958 -0.4305,-0.1996 -0.9153,-0.3001 -1.4557,-0.3001l-0.4804 0c-0.1401,0 -0.2904,0.0202 -0.4502,0.0602l0 4.2618c0,0.5805 0.1753,1.0758 0.5251,1.4855 0.35,0.4104 0.8153,0.6453 1.3956,0.7055l0 0.24c-0.4548,-0.0392 -0.91,-0.0743 -1.3657,-0.1048 -0.4545,-0.0302 -0.9099,-0.0452 -1.3651,-0.0448 -0.4607,0 -0.9061,0.0201 -1.3357,0.0601 -0.4309,0.0404 -0.8759,0.09 -1.336,0.1496 -0.0605,0.0205 -0.1052,-0.0043 -0.135,-0.0751 -0.0294,-0.0699 -0.0145,-0.1249 0.0451,-0.1649 0.4199,-0.2 0.77,-0.4997 1.0502,-0.9006 0.2802,-0.4 0.4205,-0.83 0.4205,-1.2908l0 -11.9748c0,-0.46 -0.1654,-0.8655 -0.4955,-1.2158 -0.3303,-0.3499 -0.7254,-0.5852 -1.1855,-0.7055 -0.0599,-0.0196 -0.0855,-0.0643 -0.0755,-0.1346 0.0103,-0.0699 0.0453,-0.1053 0.105,-0.1053l5.9131 0c0.6202,0 1.2305,0.0752 1.8312,0.2251 0.5998,0.15 1.1297,0.3854 1.5903,0.7056 0.4599,0.32 0.8301,0.7398 1.1107,1.2603 0.2797,0.5204 0.4201,1.1408 0.4201,1.8611 0,0.9599 -0.2652,1.8708 -0.7954,2.731 -0.5308,0.8604 -1.1258,1.6009 -1.786,2.2208 0.2201,0.2399 0.4599,0.5455 0.7206,0.9156 0.274,0.3896 0.554,0.775 0.8398,1.1554 0.4565,0.6219 0.922,1.2374 1.396,1.8459 0.4899,0.6303 1.0054,1.2008 1.5453,1.7109 0.5401,0.5103 1.1008,0.9105 1.6808,1.2005 0.5799,0.2903 1.1714,0.3956 1.7707,0.3154l0.0912 0.24c-0.342,0.1606 -0.6996,0.2864 -1.066,0.3751zm-6.7535 -13.1607l0 0c-0.1494,-0.5206 -0.375,-0.9904 -0.6751,-1.411 -0.2962,-0.4163 -0.6741,-0.7687 -1.1104,-1.0354 -0.4407,-0.2703 -0.9506,-0.4049 -1.531,-0.4049 -0.2401,0 -0.48,0.015 -0.7205,0.0448 -0.2387,0.0298 -0.4717,0.0954 -0.6905,0.1951l0 7.4732c0.3403,0.0601 0.6701,0.1005 0.9903,0.1202 0.3301,0.02 0.66,0.0302 0.9902,0.0298 1.1208,0 1.8958,-0.3047 2.3263,-0.9157 0.4301,-0.6104 0.6454,-1.4555 0.6454,-2.5361 0.0007,-0.5196 -0.0741,-1.0398 -0.2245,-1.5601zm21.9977 8.3887l0 0c0.4695,-0.9907 0.7048,-2.066 0.7048,-3.2272 0,-1.2804 -0.2353,-2.5008 -0.7048,-3.6614 -0.4705,-1.1604 -1.1161,-2.1656 -1.9352,-3.0164 -0.8217,-0.8499 -1.7822,-1.5103 -2.883,-1.9808 -1.1006,-0.4697 -2.2901,-0.6553 -3.5707,-0.5551l-0.391 0.0299c-1.4198,0.3004 -2.6206,0.6856 -3.6006,1.1555 -0.9811,0.4706 -1.7706,1.0703 -2.3712,1.8008 -0.6018,0.731 -1.0365,1.6208 -1.3064,2.6714 -0.27,1.0503 -0.405,2.3064 -0.405,3.7669 0,0.9603 0.2752,1.9105 0.8255,2.8512 0.5504,0.9408 1.2461,1.7813 2.0858,2.5209 0.8319,0.7345 1.7668,1.3414 2.7762,1.801 1.0106,0.4603 1.9854,0.6905 2.9265,0.6905 1.1407,0 2.2259,-0.1999 3.2572,-0.6007 1.0301,-0.3998 1.9352,-0.9603 2.7157,-1.6807 0.7805,-0.7205 1.4056,-1.5756 1.8761,-2.5661zm-8.1473 -11.4487l0 0 0 15.3118c-0.2572,-0.0216 -0.5066,-0.0577 -0.7484,-0.11l0.0012 -15.152c0.2483,-0.0294 0.4978,-0.046 0.7472,-0.0497zm1.7886 15.2329l0 0 0 -15.0247c0.4296,0.1168 0.841,0.2885 1.2269,0.5107 0.8293,0.4803 1.53,1.1107 2.101,1.8908 0.5697,0.7805 1.0005,1.6611 1.2899,2.6413 0.2893,0.9807 0.4346,1.9609 0.4346,2.941 0,0.9608 -0.135,1.8712 -0.4038,2.7314 -0.2712,0.8607 -0.6712,1.616 -1.201,2.2657 -0.531,0.6509 -1.1856,1.1709 -1.9661,1.561 -0.454,0.2274 -0.9477,0.388 -1.4814,0.4828zm-0.5207 -15.1409l0 0 0 15.2111c-0.2262,0.0212 -0.4602,0.0321 -0.6994,0.0321l-0.0489 0 0 -15.3274c0.2506,0.013 0.5016,0.0414 0.7483,0.0841zm-2.5319 0.0387l0 0c-0.4642,0.0929 -0.9001,0.2335 -1.3039,0.4227 -0.7908,0.3709 -1.4556,0.8812 -1.9957,1.5311 -0.5414,0.6505 -0.9555,1.4007 -1.246,2.2511 -0.2908,0.8507 -0.4347,1.7557 -0.4347,2.716 0,1.0008 0.1492,1.9914 0.45,2.9711 0.2997,0.9808 0.7446,1.8662 1.3348,2.656 0.5902,0.7906 1.3066,1.431 2.1462,1.9212 0.3317,0.1931 0.684,0.3491 1.0492,0.465l0 -14.9344zm27.9205 -0.3275l0 0c-0.009,-0.0098 -0.0347,-0.0043 -0.0747,0.0154 -0.2995,0.0863 -0.5953,0.1866 -0.8858,0.3 -0.31,0.1202 -0.4642,0.33 -0.4642,0.6305l0.0295 7.2331 0 1.2305c0,1.1459 -0.0193,2.2915 -0.0605,3.4366 -0.0397,1.1372 -0.1106,2.2731 -0.2096,3.4066 0,0.0404 -0.0257,0.0751 -0.0758,0.1049 -0.0489,0.0298 -0.0939,0.0252 -0.1339,-0.0149 -0.9604,-0.8207 -1.9211,-1.7055 -2.8816,-2.656 -0.9631,-0.9529 -1.9094,-1.9235 -2.8366,-2.9115 -0.9284,-0.9883 -1.8441,-1.9887 -2.7467,-3.0012 -0.8705,-0.9765 -1.7309,-1.9619 -2.5809,-2.9565 -0.2596,-0.2766 -0.5091,-0.5618 -0.7509,-0.8551 -0.2392,-0.2935 -0.4899,-0.5785 -0.7497,-0.8555 -0.0592,0.5184 -0.0887,1.0394 -0.09,1.561 0,0.7604 0.0103,1.5208 0.0296,2.2808 0.0206,0.7604 0.0501,1.5209 0.0899,2.2808 0.0811,1.5295 0.1209,3.0607 0.1209,4.5921 0,0.3406 0.0297,0.6151 0.0901,0.8253 0.0605,0.2101 0.1349,0.3755 0.2251,0.4957 0.0898,0.1198 0.1993,0.205 0.3304,0.2549 0.1287,0.0503 0.2649,0.0852 0.405,0.1049 0.1594,0.0404 0.3189,0.0852 0.4797,0.1351 0.1594,0.0503 0.3497,0.1551 0.5708,0.315 0.0398,0.04 0.0541,0.0847 0.0438,0.135 -0.009,0.0503 -0.0438,0.0752 -0.1043,0.0752 -0.2004,-0.0202 -0.3961,-0.0397 -0.5862,-0.0606 -0.1903,-0.0196 -0.3845,-0.0397 -0.5851,-0.0597 -0.2842,-0.0404 -0.5696,-0.0704 -0.8551,-0.0903 -0.2843,-0.0197 -0.5697,-0.0298 -0.8552,-0.0298 -0.3715,0.0008 -0.7432,0.0259 -1.1109,0.075 -0.3807,0.0503 -0.76,0.1049 -1.1407,0.1655 -0.0604,0.02 -0.1041,0 -0.1349,-0.0606 -0.0295,-0.0597 -0.0246,-0.1096 0.0154,-0.1496 0.1594,-0.1398 0.3047,-0.2502 0.4346,-0.33 0.1223,-0.0755 0.2482,-0.1457 0.3755,-0.2105 0.2392,-0.1199 0.4553,-0.2852 0.6456,-0.495 0.1903,-0.2101 0.2854,-0.5452 0.2854,-1.0059l0 -14.0461 0.2393 -0.4804c0.0207,-0.0399 0.0502,-0.0694 0.09,-0.0899 0.0411,-0.02 0.0707,-0.0097 0.0912,0.0298 2.1295,2.2079 4.241,4.4338 6.3331,6.6779 2.0908,2.2466 4.1623,4.513 6.2121,6.7983l0 -0.0903c0,-0.92 -0.0052,-1.8308 -0.0155,-2.7312 -0.0103,-0.9002 -0.0244,-1.8205 -0.0449,-2.7609 -0.0206,-0.8605 -0.0398,-1.7753 -0.0592,-2.7463 -0.0206,-0.9702 -0.0309,-1.8858 -0.0309,-2.746 0,-0.3403 -0.0346,-0.6156 -0.1041,-0.8258 -0.0707,-0.2097 -0.1659,-0.3699 -0.2855,-0.4802 -0.1196,-0.1097 -0.2507,-0.1847 -0.391,-0.2247 -0.1374,-0.0397 -0.2778,-0.0697 -0.4191,-0.0904 -0.1466,-0.0177 -0.292,-0.0425 -0.4359,-0.0751 -0.1312,-0.0306 -0.2508,-0.0982 -0.3447,-0.1952 -0.0398,-0.0397 -0.0451,-0.0899 -0.0155,-0.15 0.0309,-0.0601 0.0656,-0.0794 0.1054,-0.0601 0.4604,0.0601 0.8898,0.0903 1.2899,0.0903l1.2613 0c0.2598,0 0.5247,-0.0047 0.7947,-0.015 0.2765,-0.0098 0.5517,-0.0046 0.8256,0.015 0.1003,0 0.2109,0.0051 0.3305,0.015 0.1092,0.0098 0.2198,0.0145 0.3304,0.0149l0.0606 0.2405c-0.0399,0.0197 -0.0657,0.0247 -0.076,0.0145zm11.3635 14.5866l0 0c-0.0618,0.4451 -0.1222,0.89 -0.1788,1.3355 0,0.0605 -0.0412,0.0903 -0.1209,0.0903l-0.0297 0.0298c-0.1607,0.0601 -0.2906,0.0899 -0.3908,0.0899 -0.4604,0 -0.9247,-0.0043 -1.3952,-0.015 -0.4656,-0.0098 -0.9298,-0.0149 -1.3953,-0.0149 -0.4011,0 -0.7908,-0.0048 -1.17,-0.0146 -0.3911,-0.0106 -0.7805,-0.0153 -1.1716,-0.0153 -0.54,0 -1.0853,0.0047 -1.6357,0.0153 -0.5502,0.0098 -1.0956,0.0252 -1.6356,0.0444l0 -0.2401c0.2995,0 0.5452,-0.0647 0.7354,-0.1951 0.1853,-0.1249 0.3357,-0.2954 0.4347,-0.4953 0.1004,-0.1995 0.1659,-0.4251 0.1954,-0.6752 0.0295,-0.2498 0.0451,-0.5051 0.0451,-0.7652l0 -12.4854c0,-0.4005 -0.0952,-0.6605 -0.2855,-0.7801 -0.1942,-0.1222 -0.4001,-0.2228 -0.6161,-0.3l-0.405 -0.1356c-0.1492,-0.0494 -0.3046,-0.1249 -0.4642,-0.2251 -0.0398,-0.0397 -0.0552,-0.0848 -0.0449,-0.1347 0.0103,-0.0498 0.0449,-0.0754 0.1041,-0.0754l8.5551 0c0.0797,-0.0397 0.1646,-0.075 0.2545,-0.1049 0.0873,-0.029 0.1723,-0.064 0.2545,-0.1052 0.1004,-0.0397 0.1505,0 0.1505,0.1202 -0.0553,0.4878 -0.13,0.9738 -0.225,1.4557 -0.09,0.4501 -0.1853,0.9054 -0.2855,1.3654 -0.0206,0.0605 -0.0657,0.0852 -0.1351,0.0754 -0.0707,-0.0103 -0.1053,-0.0451 -0.1053,-0.1053 -0.0398,-0.7003 -0.2805,-1.1598 -0.7201,-1.3805 -0.4399,-0.22 -0.9813,-0.3305 -1.6203,-0.3305l-2.3713 0 0 6.153 3.481 0c0.1002,0 0.2301,-0.0298 0.3908,-0.0903l0.4797 -0.1799c0.2096,-0.1154 0.4308,-0.2061 0.661,-0.2702 0.099,-0.0397 0.1491,0 0.1491,0.1198 -0.0206,0.2401 -0.0449,0.5008 -0.0745,0.7804 -0.0283,0.2608 -0.0631,0.5212 -0.1055,0.78 -0.0411,0.2486 -0.0707,0.4993 -0.0899,0.7507 -0.0194,0.2513 -0.0489,0.5016 -0.09,0.7502 0,0.0601 -0.0259,0.1005 -0.0748,0.1202 -0.0501,0.02 -0.0964,0.0102 -0.1362,-0.0302 -0.099,-0.0998 -0.1645,-0.1995 -0.194,-0.3 -0.0335,-0.1104 -0.0682,-0.2205 -0.1055,-0.33 -0.0398,-0.1198 -0.0798,-0.24 -0.1196,-0.3602 -0.0398,-0.1202 -0.1106,-0.2298 -0.211,-0.3299 -0.1003,-0.0998 -0.2841,-0.1748 -0.5542,-0.2252 -0.2894,-0.0526 -0.5786,-0.0926 -0.8706,-0.1201 -0.3047,-0.0294 -0.6094,-0.0444 -0.9154,-0.0449l-1.5908 0 0 6.1831c0.2997,0.4407 0.7241,0.7757 1.2757,1.0055 0.549,0.2306 1.0852,0.3452 1.6047,0.3452 0.6996,0 1.2962,-0.185 1.7862,-0.5554 0.49,-0.37 0.8153,-0.8951 0.9748,-1.5759l0.2404 0.0602c-0.0952,0.4422 -0.175,0.8876 -0.2391,1.3354zm11.0714 -0.8853l0 0c-0.3702,0.5805 -0.8396,1.0754 -1.4107,1.4858 -0.5695,0.4102 -1.2009,0.7306 -1.8901,0.96 -0.6918,0.2306 -1.3465,0.3454 -1.9661,0.3454 -0.301,0 -0.6161,-0.035 -0.9452,-0.1053 -0.3304,-0.0699 -0.6314,-0.1843 -0.9013,-0.3449 -0.2702,-0.1598 -0.49,-0.365 -0.661,-0.6156 -0.1685,-0.2497 -0.2546,-0.5648 -0.2546,-0.9454 0,-0.24 0.0258,-0.4803 0.0759,-0.72 0.0502,-0.2401 0.0938,-0.4701 0.1349,-0.6909l0.1491 -0.7201c0,-0.06 0.0413,-0.0902 0.1211,-0.0902 0.0797,0 0.1195,0.0302 0.1195,0.0902l0 0.4503c0,0.4199 0.09,0.7906 0.27,1.1103 0.1762,0.3162 0.4103,0.5959 0.6905,0.8253 0.2805,0.2306 0.6057,0.4004 0.9761,0.5106 0.3689,0.11 0.7444,0.165 1.1252,0.165 0.3599,0 0.7303,-0.0602 1.111,-0.1799 0.3715,-0.1164 0.7214,-0.2939 1.035,-0.5256 0.3073,-0.2271 0.5672,-0.5125 0.7652,-0.8401 0.1993,-0.3301 0.2995,-0.6952 0.2995,-1.0956 0,-0.3798 -0.0887,-0.755 -0.2699,-1.1253 -0.1801,-0.37 -0.4206,-0.7451 -0.7202,-1.1254 -0.3176,-0.3998 -0.6584,-0.7803 -1.0197,-1.1406 -0.3857,-0.3849 -0.7767,-0.7652 -1.1714,-1.1407 -0.4219,-0.4026 -0.8422,-0.8076 -1.2603,-1.2157 -0.4204,-0.41 -0.7908,-0.8299 -1.1109,-1.2604 -0.3203,-0.4299 -0.58,-0.8652 -0.7792,-1.3057 -0.2007,-0.4398 -0.301,-0.8899 -0.301,-1.3503 0,-0.6799 0.1904,-1.2651 0.5709,-1.7561 0.3795,-0.4898 0.85,-0.8901 1.4107,-1.2004 0.5595,-0.31 1.1702,-0.5406 1.8298,-0.6902 0.661,-0.1504 1.2717,-0.2254 1.8312,-0.2254 0.8011,0 1.5315,0.1006 2.1912,0.3 0.0604,0.0404 0.0912,0.0801 0.0912,0.1202 -0.0849,1.0142 -0.2058,2.0251 -0.3612,3.0311 -0.0195,0.0602 -0.0606,0.0903 -0.1198,0.0903 -0.0604,0 -0.1003,-0.0301 -0.1209,-0.0903 -0.1593,-0.6999 -0.4641,-1.3005 -0.9141,-1.8009 -0.4501,-0.4997 -1.0468,-0.7503 -1.7862,-0.7503 -0.7599,0 -1.3953,0.2452 -1.9056,0.7354 -0.5105,0.4906 -0.7652,1.1155 -0.7652,1.8756 0,0.4006 0.0849,0.7706 0.2546,1.1107 0.1697,0.3407 0.3909,0.6704 0.6597,0.9903 0.2713,0.3204 0.5863,0.6355 0.9463,0.9455 0.3679,0.3177 0.7381,0.6327 1.1098,0.9456 0.4256,0.3441 0.8408,0.6992 1.246,1.0653 0.3986,0.3577 0.7652,0.7494 1.0956,1.1708 0.3138,0.4004 0.576,0.839 0.7805,1.3054 0.1993,0.4606 0.2995,0.9603 0.2995,1.5008 0,0.7007 -0.1851,1.341 -0.5555,1.9211zm-107.0115 -2.81l0 0c-0.2673,0.5625 -0.6225,1.0486 -1.0666,1.4584 -0.4433,0.4092 -0.9579,0.7274 -1.5435,0.9552 -0.586,0.2274 -1.2024,0.3414 -1.8511,0.3414 -0.5343,0 -1.089,-0.1309 -1.6627,-0.3924 -0.5739,-0.2609 -1.1057,-0.6061 -1.5778,-1.0237 -0.4781,-0.4202 -0.8734,-0.8978 -1.1856,-1.4324 -0.313,-0.5346 -0.4692,-1.0747 -0.4692,-1.6207 0,-0.83 0.0769,-1.5441 0.2306,-2.1411 0.1535,-0.597 0.4009,-1.1028 0.7419,-1.5181 0.3413,-0.4152 0.7903,-0.7561 1.3475,-1.0232 0.5572,-0.2671 1.2394,-0.4862 2.0475,-0.6571l0.2218 -0.017c0.7273,-0.0566 1.4041,0.0483 2.0299,0.3154 0.6159,0.2613 1.1728,0.6441 1.6371,1.126 0.4663,0.4837 0.8329,1.0551 1.1002,1.7146 0.267,0.6591 0.4011,1.3531 0.4011,2.0809 0,0.6596 -0.1341,1.2707 -0.4011,1.8337zm-4.6306 -6.5069l0 0c-0.1458,0.0023 -0.2873,0.0117 -0.4247,0.0281l0 8.6119c0.1374,0.0295 0.2789,0.0503 0.4247,0.0624l0 -8.7025zm1.016 8.6577l0 0c0.2928,-0.0503 0.5767,-0.1425 0.8426,-0.2741 0.4434,-0.2223 0.8158,-0.5177 1.1174,-0.8872 0.3013,-0.3693 0.5288,-0.799 0.6827,-1.288 0.1532,-0.4891 0.2302,-1.0063 0.2302,-1.5527 0,-0.557 -0.0824,-1.114 -0.2473,-1.6714 -0.1652,-0.557 -0.4095,-1.0576 -0.7333,-1.5011 -0.3182,-0.438 -0.725,-0.8041 -1.1941,-1.0748 -0.2193,-0.126 -0.4535,-0.2239 -0.6977,-0.2902l0 8.5395 -0.0005 0zm-0.2952 -8.6055l0 0c-0.1404,-0.0245 -0.2824,-0.0401 -0.4247,-0.0475l0 8.7112 0.0275 0c0.1363,0 0.2691,-0.0063 0.3975,-0.0185l-0.0003 -8.6452zm-1.4389 0.0224l0 0c-0.2556,0.0499 -0.5047,0.1304 -0.7412,0.2401 -0.449,0.2109 -0.8271,0.5008 -1.1339,0.8699 -0.3072,0.3697 -0.5437,0.7963 -0.7081,1.2793 -0.1651,0.4831 -0.2477,0.9981 -0.2477,1.544 0,0.5687 0.0859,1.1313 0.2563,1.6883 0.1704,0.5574 0.4238,1.0609 0.7593,1.5099 0.3279,0.4426 0.7431,0.8143 1.2195,1.0916 0.1886,0.11 0.3885,0.1987 0.5963,0.2647l-0.0005 -8.4877z"/>
  </g>
 </g>
</svg>
